<svg width="310" height="275" xmlns="http://www.w3.org/2000/svg" xmlns:xlink="http://www.w3.org/1999/xlink" xml:space="preserve" overflow="hidden"><g transform="translate(-85 -377)"><path d="M77.3438 120.312C90.6641 120.312 101.621 110.215 102.964 97.2168L146.094 154.688C132.773 154.688 121.816 164.785 120.474 177.783L77.3438 120.312ZM103.125 51.5625 206.25 51.5625 206.25 85.9375 103.125 85.9375 103.125 51.5625Z" fill="#8D5633" fill-opacity="0.4" transform="matrix(1.00202 0 0 1 85 377)"/><path d="M0 42.9688C0 28.7354 11.5479 17.1875 25.7812 17.1875L77.3438 17.1875C91.5771 17.1875 103.125 28.7354 103.125 42.9688L103.125 94.5312C103.125 108.765 91.5771 120.312 77.3438 120.312L25.7812 120.312C11.5479 120.312 0 108.765 0 94.5312L0 42.9688ZM120.312 180.469C120.312 166.235 131.86 154.688 146.094 154.688L197.656 154.688C211.89 154.688 223.438 166.235 223.438 180.469L223.438 232.031C223.438 246.265 211.89 257.812 197.656 257.812L146.094 257.812C131.86 257.812 120.312 246.265 120.312 232.031L120.312 180.469ZM232.031 17.1875 283.594 17.1875C297.827 17.1875 309.375 28.7354 309.375 42.9688L309.375 94.5312C309.375 108.765 297.827 120.312 283.594 120.312L232.031 120.312C217.798 120.312 206.25 108.765 206.25 94.5312L206.25 42.9688C206.25 28.7354 217.798 17.1875 232.031 17.1875Z" fill="#8D5633" transform="matrix(1.00202 0 0 1 85 377)"/></g></svg>