<svg width="275" height="275" xmlns="http://www.w3.org/2000/svg" xmlns:xlink="http://www.w3.org/1999/xlink" xml:space="preserve" overflow="hidden"><g transform="translate(-905 -68)"><path d="M905 222.688 905 308.625C905 327.585 920.415 343 939.375 343L1025.31 343 1025.31 308.625C1025.31 303.898 1021.45 300.031 1016.72 300.031L1008.12 300.031C998.618 300.031 990.938 292.351 990.938 282.844 990.938 273.337 998.618 265.656 1008.12 265.656L1016.72 265.656C1021.45 265.656 1025.31 261.789 1025.31 257.062L1025.31 222.688 990.938 222.688C986.211 222.688 982.344 218.82 982.344 214.094L982.344 205.5C982.344 195.993 974.663 188.312 965.156 188.312 955.649 188.312 947.969 195.993 947.969 205.5L947.969 214.094C947.969 218.82 944.102 222.688 939.375 222.688L905 222.688ZM1068.28 76.5938 1068.28 102.375C1068.28 107.102 1072.15 110.969 1076.88 110.969L1085.47 110.969C1094.98 110.969 1102.66 118.649 1102.66 128.156 1102.66 137.663 1094.98 145.344 1085.47 145.344L1076.88 145.344C1072.15 145.344 1068.28 149.211 1068.28 153.938L1068.28 171.125C1068.28 175.852 1072.15 179.719 1076.88 179.719L1096.21 179.719C1099.76 179.719 1102.66 182.619 1102.66 186.164L1102.66 188.312C1102.66 197.819 1110.34 205.5 1119.84 205.5 1129.35 205.5 1137.03 197.819 1137.03 188.312L1137.03 186.164C1137.03 182.619 1139.93 179.719 1143.48 179.719L1171.41 179.719C1176.13 179.719 1180 175.852 1180 171.125L1180 102.375C1180 83.415 1164.58 68 1145.62 68L1076.88 68C1072.15 68 1068.28 71.8672 1068.28 76.5938Z" fill="#8D5633" fill-opacity="0.4"/><path d="M905 222.688 939.375 222.688C944.102 222.688 947.969 218.82 947.969 214.094L947.969 205.5C947.969 195.993 955.649 188.312 965.156 188.312 974.663 188.312 982.344 195.993 982.344 205.5L982.344 214.094C982.344 218.82 986.211 222.688 990.938 222.688L1025.31 222.688 1025.31 186.164C1025.31 182.619 1028.21 179.719 1031.76 179.719L1033.91 179.719C1043.41 179.719 1051.09 172.038 1051.09 162.531 1051.09 153.024 1043.41 145.344 1033.91 145.344L1031.76 145.344C1028.21 145.344 1025.31 142.443 1025.31 138.898L1025.31 110.969C1025.31 106.242 1021.45 102.375 1016.72 102.375L939.375 102.375C920.415 102.375 905 117.79 905 136.75L905 222.688ZM1025.31 222.688 1025.31 257.062C1025.31 261.789 1021.45 265.656 1016.72 265.656L1008.12 265.656C998.618 265.656 990.938 273.337 990.938 282.844 990.938 292.351 998.618 300.031 1008.12 300.031L1016.72 300.031C1021.45 300.031 1025.31 303.898 1025.31 308.625L1025.31 343 1111.25 343C1130.21 343 1145.62 327.585 1145.62 308.625L1145.62 231.281C1145.62 226.555 1141.76 222.688 1137.03 222.688L1111.25 222.688C1106.52 222.688 1102.66 226.555 1102.66 231.281L1102.66 239.875C1102.66 249.382 1094.98 257.062 1085.47 257.062 1075.96 257.062 1068.28 249.382 1068.28 239.875L1068.28 231.281C1068.28 226.555 1064.41 222.688 1059.69 222.688L1025.31 222.688Z" fill="#8D5633"/></g></svg>