<svg width="275" height="275" xmlns="http://www.w3.org/2000/svg" xmlns:xlink="http://www.w3.org/1999/xlink" xml:space="preserve" overflow="hidden"><defs><clipPath id="clip0"><rect x="102" y="68" width="275" height="275"/></clipPath></defs><g clip-path="url(#clip0)" transform="translate(-102 -68)"><path d="M102 325.812C102 327.478 102.215 329.143 102.752 330.808 104.954 338.059 111.614 343 119.188 343L359.812 343C367.386 343 374.046 338.059 376.248 330.808 376.731 329.143 377 327.478 377 325.812 377 320.173 374.207 314.748 369.373 311.525L343.592 294.338C343.27 294.123 342.947 293.962 342.625 293.747L342.625 171.125 308.25 171.125 308.25 291.438 286.766 291.438 286.766 171.125 252.391 171.125 252.391 291.438 226.609 291.438 226.609 171.125 192.234 171.125 192.234 291.438 170.75 291.438 170.75 171.125 136.375 171.125 136.375 293.747C136.053 293.908 135.73 294.123 135.462 294.338L109.681 311.525C104.793 314.748 102 320.173 102 325.812Z" fill="#8D5633" fill-opacity="0.4"/><path d="M248.04 70.2559C242.776 67.248 236.277 67.248 230.96 70.2559L110.647 139.006C103.88 142.873 100.55 150.822 102.537 158.342 104.524 165.861 111.399 171.125 119.188 171.125L359.812 171.125C367.601 171.125 374.422 165.861 376.409 158.342 378.396 150.822 375.066 142.873 368.353 139.006L248.04 70.2559Z" fill="#8D5633"/></g></svg>